<svg id="Layer_1" data-name="Layer 1" xmlns="http://www.w3.org/2000/svg" viewBox="0 0 13.75 13.74"><defs><style>.cls-1{fill:#fff;}</style></defs><title>login</title><path class="cls-1" d="M7.31,9.06l-.08.07L5.8,10.59a1.24,1.24,0,0,0-.23.32,1.17,1.17,0,0,0,.19,1.33,1.15,1.15,0,0,0,.95.37,1.18,1.18,0,0,0,.79-.37l1.85-1.86,1.72-1.72a1.15,1.15,0,0,0,.19-.27,1.11,1.11,0,0,0,.12-.6,1,1,0,0,0-.21-.58c-.14-.17-.29-.32-.44-.48L7.34,3.34a1.1,1.1,0,0,0-1-.28,1.12,1.12,0,0,0-.7.41,1.14,1.14,0,0,0-.27.67,1.19,1.19,0,0,0,.39,1l1.5,1.5.08.08H2.1a1.21,1.21,0,0,0-.72.42,1.15,1.15,0,0,0-.24,1,1.12,1.12,0,0,0,.39.62A1.14,1.14,0,0,0,2.31,9h5ZM12.51,8v3.93a.59.59,0,0,1-.26.5.67.67,0,0,1-.41.11H10.57a1.18,1.18,0,0,0-.48,2.07l0,0a1.1,1.1,0,0,0,.69.24h1a6,6,0,0,0,.64,0,2.32,2.32,0,0,0,.73-.24,3,3,0,0,0,.62-.42,3.14,3.14,0,0,0,.71-.86,2.88,2.88,0,0,0,.35-1.42V3.73a2.51,2.51,0,0,0-.26-.9,3,3,0,0,0-.88-1.07,2.88,2.88,0,0,0-1.78-.62H10.62a1.15,1.15,0,0,0-.65.37,1.12,1.12,0,0,0-.31.73,1.1,1.1,0,0,0,.18.67,1.13,1.13,0,0,0,1,.56H12a.62.62,0,0,1,.55.56V8Z" transform="translate(-1.11 -1.14)"/><path class="cls-1" d="M7.31,9.06h-5a1.14,1.14,0,0,1-.78-.29,1.12,1.12,0,0,1-.39-.62,1.15,1.15,0,0,1,.24-1A1.21,1.21,0,0,1,2.1,6.7H7.34l-.08-.08-1.5-1.5a1.19,1.19,0,0,1-.39-1,1.14,1.14,0,0,1,.27-.67A1.12,1.12,0,0,1,6.34,3a1.1,1.1,0,0,1,1,.28L10.73,6.7c.15.15.3.31.44.48a1,1,0,0,1,.21.58,1.11,1.11,0,0,1-.12.6,1.15,1.15,0,0,1-.19.27L9.35,10.38,7.51,12.24a1.18,1.18,0,0,1-.79.37,1.15,1.15,0,0,1-.95-.37,1.17,1.17,0,0,1-.19-1.33,1.24,1.24,0,0,1,.23-.32L7.24,9.15l.08-.07Z" transform="translate(-1.11 -1.14)"/><path class="cls-1" d="M12.51,8V4.06A.62.62,0,0,0,12,3.49H10.82a1.13,1.13,0,0,1-1-.56,1.1,1.1,0,0,1-.18-.67A1.12,1.12,0,0,1,10,1.51a1.15,1.15,0,0,1,.65-.37H12a2.88,2.88,0,0,1,1.78.62,3,3,0,0,1,.85,1,2.51,2.51,0,0,1,.26.9v8.2a2.88,2.88,0,0,1-.35,1.42,3.14,3.14,0,0,1-.71.86,3,3,0,0,1-.62.42,2.32,2.32,0,0,1-.73.24,5.94,5.94,0,0,1-.64,0h-1a1.1,1.1,0,0,1-.69-.24,1.14,1.14,0,0,1,.45-2h1.27a.67.67,0,0,0,.41-.11.59.59,0,0,0,.26-.5V8Z" transform="translate(-1.11 -1.14)"/></svg>